<?xml version="1.0" encoding="utf-8"?>
<?xml-stylesheet type="text/xsl" href="rss1.xsl"?>
<rss version="2.0" xmlns:atom="http://www.w3.org/2005/Atom" xmlns:content="http://purl.org/rss/1.0/modules/content/" xmlns:dc="http://purl.org/dc/elements/1.1/" xmlns:media="http://search.yahoo.com/mrss/">
<channel>
 <title>Getty</title>
 <link>http://www.gettyimg.com/</link>
 <atom:link href="http://www.gettyimg.com/" rel="self" type="application/rss+xml" />

 
                <item>
                <title><![CDATA[【Requests】[REQ VID] - Divas Live 2004 Show complete]]></title>
                <link><![CDATA[https://sharemania.us/threads/divas-live-2004-show-complete.227757/]]></link>
                <description><![CDATA[<article>
<blockquote class="messageText SelectQuoteContainer ugc baseHtml">
PLEASEEEEE<br>
<span data-s9e-mediaembed="youtube" style="display:inline-block;width:100%;max-width:640px"><span style="display:block;overflow:hidden;position:relative;padding-bottom:56.25%"><iframe allowfullscreen="" loading="lazy" scrolling="no" style="background:url(https://i.ytimg.com/vi/xX4Y_uk8t8Y/hqdefault.jpg) 50% 50% / cover;border:0;height:100%;left:0;position:absolute;width:100%" src="https://www.youtube.com/embed/xX4Y_uk8t8Y"></iframe></span></span>
<div class="messageTextEndMarker">&nbsp;</div>
</blockquote>
</article>]]></description>
                <author><![CDATA[Rafaelgadea]]></author>
                </item>

                
                <item>
                <title><![CDATA[【Requests】[REQ AUD] - N.E.R.D. &amp; The Neptunes Discography - Qobuz 24/96]]></title>
                <link><![CDATA[https://sharemania.us/threads/n-e-r-d-the-neptunes-discography-qobuz-24-96.227760/]]></link>
                <description><![CDATA[<article>
<blockquote class="messageText SelectQuoteContainer ugc baseHtml">
Please share any of these albums you might have in Qobuz lossless, preferbly in 24/96<br>
<br>
N.E.R.D <br>
2001 - In Search of... (Original Version)<br>
2002 - In Search of... (Rock Version)<br>
2004 - Fly or Die<br>
2008 - Seeing Sounds<br>
2010 - Nothing<br>
2017 - No One Really Ever Dies<br>
<br>
The Neptunes<br>
2003 - Clones
<div class="messageTextEndMarker">&nbsp;</div>
</blockquote>
</article>]]></description>
                <author><![CDATA[casog11638]]></author>
                </item>

                
                <item>
                <title><![CDATA[【Requests】[REQ VID] - Leon Bridges The Town 2023]]></title>
                <link><![CDATA[https://sharemania.us/threads/leon-bridges-the-town-2023.227758/]]></link>
                <description><![CDATA[<article>
<blockquote class="messageText SelectQuoteContainer ugc baseHtml">
Please, did somebody record de concert???
<div class="messageTextEndMarker">&nbsp;</div>
</blockquote>
</article>]]></description>
                <author><![CDATA[franca.thais.89]]></author>
                </item>

                
                <item>
                <title><![CDATA[【PRORES HD】Greyson Chance - My Dying Spirit |ProRes 1080|]]></title>
                <link><![CDATA[https://sharemania.us/threads/greyson-chance-my-dying-spirit-prores-1080.227759/]]></link>
                <description><![CDATA[<article>
<blockquote class="messageText SelectQuoteContainer ugc baseHtml">
<div style="text-align: center"><img src="https://i.imgur.com/uHGWEGV.gif" class="bbCodeImage LbImage" alt="[​IMG]" data-url="https://i.imgur.com/uHGWEGV.gif" style=""><br>
<br>
​</div>
<div class="ToggleTriggerAnchor bbCodeSpoilerContainer">
<button type="button" class="button bbCodeSpoilerButton ToggleTrigger Tooltip JsOnly" data-target="> .SpoilerTarget"><span>Spoiler: <span class="SpoilerTitle">ProRes</span></span></button>
<div class="SpoilerTarget bbCodeSpoilerText">
<div class="bbCodeBlock bbCodeCode">
<div class="type">Code:</div>
<pre>Format                                   : MPEG-4
Format profile                           : QuickTime
Codec ID                                 : qt   2005.03 (qt  )
File size                                : 5.71 GiB
Duration                                 : 4 min 43 s
Overall bit rate mode                    : Variable
Overall bit rate                         : 173 Mb/s
Encoded date                             : UTC 2022-09-07 20:49:06
Tagged date                              : UTC 2022-09-07 21:25:19
Writing library                          : Apple QuickTime
TIM                                      : 00:00:00:00
TSC                                      : 24
TSZ                                      : 1

Video
ID                                       : 1
Format                                   : ProRes
Format version                           : Version 0
Format profile                           : 422 HQ
Codec ID                                 : apch
Duration                                 : 4 min 43 s
Bit rate mode                            : Variable
Bit rate                                 : 172 Mb/s
Width                                    : 1 920 pixels
Height                                   : 910 pixels
Display aspect ratio                     : 2.110
Frame rate mode                          : Constant
Frame rate                               : 24.000 FPS
Color space                              : YUV
Chroma subsampling                       : 4:2:2
Scan type                                : Progressive
Bits/(Pixel*Frame)                       : 4.095
Stream size                              : 5.67 GiB (99%)
Writing library                          : Apple
Language                                 : English
Encoded date                             : UTC 2022-09-07 20:49:06
Tagged date                              : UTC 2022-09-07 20:49:06
Color primaries                          : BT.709
Transfer characteristics                 : BT.709
Matrix coefficients                      : BT.709

Audio
ID                                       : 2
Format                                   : PCM
Format settings                          : Little / Signed
Codec ID                                 : sowt
Duration                                 : 4 min 43 s
Bit rate mode                            : Constant
Bit rate                                 : 1 411.2 kb/s
Channel(s)                               : 2 channels
Channel layout                           : L R
Sampling rate                            : 44.1 kHz
Bit depth                                : 16 bits
Stream size                              : 47.7 MiB (1%)
Language                                 : English
Encoded date                             : UTC 2022-09-07 20:49:06
Tagged date                              : UTC 2022-09-07 20:49:06

Other
ID                                       : 3
Type                                     : Time code
Format                                   : QuickTime TC
Duration                                 : 4 min 43 s
Frame rate                               : 24.000 FPS
Time code of first frame                 : 00:00:00:00
Time code, striped                       : Yes
Language                                 : English
Encoded date                             : UTC 2022-09-07 20:49:06
Tagged date                              : UTC 2022-09-07 20:49:06</pre>
</div><div style="text-align: center">​</div></div>
</div><div style="text-align: center"><br>
<br>
<br>
<div class="bbCodeBlock bbCodeVfcHH HiddenContent">
<div class="attribution type">Hidden Content:</div>
<blockquote>You must reply before you can see the hidden data contained here.</blockquote>
</div></div>
<div class="messageTextEndMarker">&nbsp;</div>
</blockquote>
</article>]]></description>
                <author><![CDATA[fstambuk]]></author>
                </item>

                </channel></rss>